<svg xmlns="http://www.w3.org/2000/svg" viewBox="180 150 860 860" role="img" aria-labelledby="title desc" shape-rendering="geometricPrecision">
  <title id="title">CalendarIA</title>
  <desc id="desc">Calendario con destello de inteligencia artificial y dos conexiones digitales</desc>

  <rect x="180" y="150" width="860" height="860" rx="170" fill="#fffdf9"/>

  <g fill="none" stroke="#0b0c0e" stroke-width="52" stroke-linecap="round" stroke-linejoin="round">
    <path d="M459 260v112M795 260v112"/>
    <path d="M974 478v-39c0-66-49-108-113-108H392c-67 0-113 45-113 113v385c0 70 48 116 118 116h171c59 0 91-28 119-86 28-60 69-91 132-91h35"/>
    <path d="M279 331h582"/>
    <path d="M655 873c44-91 83-132 164-132h31c51 0 89-20 116-59"/>
    <path d="M743 948v-19c0-45 35-78 80-78h83"/>
  </g>

  <g fill="#0b0c0e">
    <rect x="395" y="502" width="49" height="49" rx="12"/>
    <rect x="522" y="502" width="49" height="49" rx="12"/>
    <rect x="649" y="502" width="49" height="49" rx="12"/>

    <rect x="395" y="623" width="49" height="49" rx="12"/>
    <rect x="522" y="623" width="49" height="49" rx="12"/>
    <rect x="649" y="623" width="49" height="49" rx="12"/>

    <rect x="395" y="744" width="49" height="49" rx="12"/>
    <rect x="522" y="744" width="49" height="49" rx="12"/>

    <path d="M847 462c12 45 36 69 81 81-45 12-69 36-81 81-12-45-36-69-81-81 45-12 69-36 81-81Z"/>

    <circle cx="955" cy="654" r="54"/>
    <circle cx="952" cy="865" r="54"/>
  </g>

  <circle cx="955" cy="654" r="22" fill="#fffdf9"/>
  <circle cx="952" cy="865" r="22" fill="#fffdf9"/>
</svg>
